<svg xmlns="http://www.w3.org/2000/svg" viewBox="0 0 56 84" width="56" height="84"><path d="M21 62 L19.45 67" stroke="#3F4A63" stroke-width="9.5" stroke-linecap="round" fill="none"/><path d="M19.45 67 L22 70" stroke="#3F4A63" stroke-width="8.5" stroke-linecap="round" fill="none"/><rect x="18.25" y="69" width="7.5" height="4" rx="2.5" fill="#2A303F"/><rect x="18.25" y="70.6" width="7.5" height="2.4" rx="1.2" fill="#1d222c"/><path d="M35 62 L34.325 70.6" stroke="#313a4d" stroke-width="9.5" stroke-linecap="round" fill="none"/><path d="M34.325 70.6 L33.5 79" stroke="#313a4d" stroke-width="8.5" stroke-linecap="round" fill="none"/><rect x="26.6" y="78" width="13.8" height="5.8" rx="2.5" fill="#2A303F"/><rect x="26.6" y="81.39999999999999" width="13.8" height="2.4" rx="1.2" fill="#1d222c"/><path d="M15.5 44 L14 55" stroke="#C026D3" stroke-width="8.4" stroke-linecap="round" fill="none"/><circle cx="14" cy="55" r="3.5" fill="#B37B4E"/><path d="M14 55 L15 65" stroke="#B37B4E" stroke-width="6.6" stroke-linecap="round" fill="none"/><path d="M15.592059504335982 54.840794049566405 L16.59205950433598 64.8407940495664" stroke="#bf906a" stroke-width="1.4" stroke-linecap="round" opacity=".65" fill="none"/><path d="M12.308436776643019 55.169156322335695 L13.308436776643019 65.1691563223357" stroke="#936540" stroke-width="1.3" stroke-linecap="round" opacity=".5" fill="none"/><path d="M40.5 44 L43 34" stroke="#9a1ea9" stroke-width="8.4" stroke-linecap="round" fill="none"/><circle cx="43" cy="34" r="3.5" fill="#B37B4E"/><path d="M43 34 L35 21" stroke="#B37B4E" stroke-width="6.6" stroke-linecap="round" fill="none"/><path d="M44.36265330672727 33.16144411893706 L36.36265330672727 20.161444118937066" stroke="#bf906a" stroke-width="1.4" stroke-linecap="round" opacity=".65" fill="none"/><path d="M41.552180861602274 34.89096562362937 L33.552180861602274 21.89096562362937" stroke="#936540" stroke-width="1.3" stroke-linecap="round" opacity=".5" fill="none"/><circle cx="15" cy="65" r="4" fill="#B37B4E"/><rect x="16" y="62" width="24" height="4" rx="2" fill="#293040"/><path d="M17.5 66 L14.5 45 A13.5 13.5 0 0 1 41.5 45 L38.5 66 Z" fill="#C026D3"/><path d="M28 31.5 A13.5 13.5 0 0 1 41.5 45 L38.5 66 L28 66 Z" fill="#9a1ea9"/><path d="M21 33 Q28 39 35 33 Q28 36 21 33 Z" fill="#7f198b"/><rect x="23.5" y="26" width="9" height="7" rx="3" fill="#B37B4E"/><path d="M23.5 27.5 Q28 33 32.5 27.5 L32.5 26 L23.5 26 Z" fill="#936540"/><g transform="translate(35 21) rotate(20)"><rect x="-3" y="-5.2" width="6" height="10.4" rx="1.5" fill="#20242E"/><rect x="-2.2" y="-4.1" width="4.4" height="7" rx="0.8" fill="#5B7CFA"/></g><circle cx="35" cy="21" r="4" fill="#B37B4E"/><circle cx="16.72" cy="17.72" r="2.64" fill="#B37B4E"/><circle cx="39.28" cy="17.72" r="2.64" fill="#B37B4E"/><circle cx="28" cy="17" r="12" fill="#B37B4E"/><circle cx="28" cy="15.8" r="12.600000000000001" fill="#6B3F1C"/><path d="M18.171999999999997 18.2 Q10.863999999999997 26.12 14.139999999999997 38.6 Q19.432 29.48 21.7 20.84 Z" fill="#6B3F1C"/><circle cx="18.171999999999997" cy="19.16" r="1.7999999999999998" fill="#8c694e"/></svg>