<svg xmlns="http://www.w3.org/2000/svg" viewBox="0 0 56 84" width="56" height="84"><rect x="16" y="64" width="10" height="15" rx="4" fill="#3F4A63"></rect><rect x="30" y="64" width="10" height="15" rx="4" fill="#313a4d"></rect><rect x="15" y="76" width="11" height="6" rx="3" fill="#2A303F"></rect><rect x="30" y="76" width="11" height="6" rx="3" fill="#2A303F"></rect><rect x="15" y="80" width="11" height="2.6" rx="1.3" fill="#1d222c"></rect><rect x="30" y="80" width="11" height="2.6" rx="1.3" fill="#1d222c"></rect><rect x="16" y="62" width="24" height="4" rx="2" fill="#293040"></rect><path d="M17.5 66 L14.5 45 A13.5 13.5 0 0 1 41.5 45 L38.5 66 Z" fill="#2E95C5"></path><path d="M28 31.5 A13.5 13.5 0 0 1 41.5 45 L38.5 66 L28 66 Z" fill="#25779e"></path><path d="M22 33 L28 42 L34 33 Q28 37 22 33 Z" fill="#1e6282"></path><path d="M23 35 L26.5 47" stroke="#2A2F3D" stroke-width="1.5" stroke-linecap="round"></path><path d="M33 35 L29.5 47" stroke="#2A2F3D" stroke-width="1.5" stroke-linecap="round"></path><rect x="24" y="46" width="8" height="6" rx="1.6" fill="#F7F4EC"></rect><rect x="25.4" y="48" width="5.2" height="1.3" rx="0.65" fill="#2E95C5"></rect><path d="M15.5 44 L14 54" stroke="#2E95C5" stroke-width="8.4" stroke-linecap="round" fill="none"></path><circle cx="14" cy="54" r="3.5" fill="#A66A3E"></circle><path d="M14 54 L14 63" stroke="#A66A3E" stroke-width="6.6" stroke-linecap="round" fill="none"></path><path d="M15.6 54 L15.6 63" stroke="#b4825d" stroke-width="1.4" stroke-linecap="round" opacity=".65" fill="none"></path><path d="M12.3 54 L12.3 63" stroke="#885733" stroke-width="1.3" stroke-linecap="round" opacity=".5" fill="none"></path><path d="M40.5 44 L41 54" stroke="#25779e" stroke-width="8.4" stroke-linecap="round" fill="none"></path><circle cx="41" cy="54" r="3.5" fill="#A66A3E"></circle><path d="M41 54 L41 63" stroke="#A66A3E" stroke-width="6.6" stroke-linecap="round" fill="none"></path><path d="M39.4 54 L39.4 63" stroke="#b4825d" stroke-width="1.4" stroke-linecap="round" opacity=".65" fill="none"></path><path d="M42.7 54 L42.7 63" stroke="#885733" stroke-width="1.3" stroke-linecap="round" opacity=".5" fill="none"></path><circle cx="14" cy="63" r="4" fill="#A66A3E"></circle><circle cx="41" cy="63" r="4" fill="#A66A3E"></circle><rect x="23.5" y="26" width="9" height="7" rx="3" fill="#A66A3E"></rect><path d="M23.5 27.5 Q28 33 32.5 27.5 L32.5 26 L23.5 26 Z" fill="#885733"></path><circle cx="16.72" cy="17.72" r="2.64" fill="#A66A3E"></circle><circle cx="39.28" cy="17.72" r="2.64" fill="#A66A3E"></circle><circle cx="28" cy="17" r="12" fill="#A66A3E"></circle><path d="M15.64 13.4 A12.36 12.36 0 0 1 40.36 13.4 Z" fill="#1A1512"></path><path d="M15.64 13.4 L15.64 27.2 Q17.68 30.872 19.72 27.2 L19.72 13.4 Z" fill="#1A1512"></path><path d="M36.28 13.4 L36.28 27.2 Q38.32 30.872 40.36 27.2 L40.36 13.4 Z" fill="#1A1512"></path><path d="M19.842399999999998 10.76 A9.3936 9.3936 0 0 1 27.52 4.76" stroke="#4c4846" stroke-width="1.6800000000000002" stroke-linecap="round" fill="none"></path><path d="M21.88 12.92 Q23.68 11.719999999999999 25.48 12.92" stroke="#1A1512" stroke-width="0.8999999999999999" stroke-linecap="round" fill="none"></path><path d="M30.52 12.92 Q32.32 11.719999999999999 34.12 12.92" stroke="#1A1512" stroke-width="0.8999999999999999" stroke-linecap="round" fill="none"></path><ellipse cx="21.759999999999998" cy="20.6" rx="1.6800000000000002" ry="1.08" fill="#FF6A5B" opacity=".3"></ellipse><ellipse cx="34.24" cy="20.6" rx="1.6800000000000002" ry="1.08" fill="#FF6A5B" opacity=".3"></ellipse><circle cx="23.68" cy="16.52" r="1.44" fill="#2A2530"></circle><circle cx="23.1904" cy="16.0304" r="0.48960000000000004" fill="#fff"></circle><circle cx="32.32" cy="16.52" r="1.44" fill="#2A2530"></circle><circle cx="31.8304" cy="16.0304" r="0.48960000000000004" fill="#fff"></circle><path d="M28 17.96 Q28.84 19.4 27.76 19.52" stroke="#815330" stroke-width="0.6000000000000001" stroke-linecap="round" fill="none"></path><path d="M25.6 21.32 Q28 23 30.4 21.32" stroke="#603d24" stroke-width="1.5" stroke-linecap="round" fill="none"></path></svg>