<svg xmlns="http://www.w3.org/2000/svg" viewBox="0 0 56 66" width="56" height="66"><rect x="16" y="62" width="24" height="4" rx="2" fill="#293040"></rect><path d="M17.5 66 L14.5 45 A13.5 13.5 0 0 1 41.5 45 L38.5 66 Z" fill="#6D3FDB"></path><path d="M28 31.5 A13.5 13.5 0 0 1 41.5 45 L38.5 66 L28 66 Z" fill="#5732af"></path><path d="M28 34 L28 64" stroke="#482a91" stroke-width="1.3" stroke-linecap="round" opacity=".45"></path><path d="M15.5 44 L14 54" stroke="#6D3FDB" stroke-width="8.4" stroke-linecap="round" fill="none"></path><circle cx="14" cy="54" r="3.5" fill="#C98A5C"></circle><path d="M14 54 L14 63" stroke="#C98A5C" stroke-width="6.6" stroke-linecap="round" fill="none"></path><path d="M40.5 44 L41 54" stroke="#5732af" stroke-width="8.4" stroke-linecap="round" fill="none"></path><circle cx="41" cy="54" r="3.5" fill="#C98A5C"></circle><path d="M41 54 L41 63" stroke="#C98A5C" stroke-width="6.6" stroke-linecap="round" fill="none"></path><circle cx="14" cy="63" r="4" fill="#C98A5C"></circle><circle cx="41" cy="63" r="4" fill="#C98A5C"></circle><rect x="23.5" y="26" width="9" height="7" rx="3" fill="#C98A5C"></rect><circle cx="16.72" cy="17.72" r="2.64" fill="#C98A5C"></circle><circle cx="39.28" cy="17.72" r="2.64" fill="#C98A5C"></circle><circle cx="28" cy="17" r="12" fill="#4A2F1F"></circle><circle cx="18" cy="10" r="5" fill="#4A2F1F"></circle><circle cx="24" cy="6.5" r="5" fill="#725d50"></circle><circle cx="32" cy="6.5" r="5" fill="#4A2F1F"></circle><circle cx="38" cy="10" r="5" fill="#725d50"></circle><circle cx="15.5" cy="16" r="4.6" fill="#4A2F1F"></circle><circle cx="40.5" cy="16" r="4.6" fill="#4A2F1F"></circle><circle cx="18" cy="22" r="4.2" fill="#4A2F1F"></circle><circle cx="38" cy="22" r="4.2" fill="#4A2F1F"></circle><circle cx="28" cy="24" r="4.4" fill="#4A2F1F"></circle><circle cx="24.5" cy="9.5" r="1.8" fill="#8a6f5f" opacity=".5"></circle></svg>
