<svg xmlns="http://www.w3.org/2000/svg" viewBox="0 0 56 84" width="56" height="84"><path d="M35 62 L36.55 67" stroke="#313a4d" stroke-width="9.5" stroke-linecap="round" fill="none"/><path d="M36.55 67 L34 70" stroke="#313a4d" stroke-width="8.5" stroke-linecap="round" fill="none"/><rect x="30.25" y="69" width="7.5" height="4" rx="2.5" fill="#2A303F"/><rect x="30.25" y="70.6" width="7.5" height="2.4" rx="1.2" fill="#1d222c"/><path d="M21 62 L21.675 70.6" stroke="#3F4A63" stroke-width="9.5" stroke-linecap="round" fill="none"/><path d="M21.675 70.6 L22.5 79" stroke="#3F4A63" stroke-width="8.5" stroke-linecap="round" fill="none"/><rect x="15.6" y="78" width="13.8" height="5.8" rx="2.5" fill="#2A303F"/><rect x="15.6" y="81.39999999999999" width="13.8" height="2.4" rx="1.2" fill="#1d222c"/><path d="M15.5 44 L13 52" stroke="#3D6B3A" stroke-width="8.4" stroke-linecap="round" fill="none"/><circle cx="13" cy="52" r="3.5" fill="#FAD9B8"/><path d="M13 52 L13 61" stroke="#FAD9B8" stroke-width="6.6" stroke-linecap="round" fill="none"/><path d="M14.6 52 L14.6 61" stroke="#fbdfc3" stroke-width="1.4" stroke-linecap="round" opacity=".65" fill="none"/><path d="M11.3 52 L11.3 61" stroke="#cdb297" stroke-width="1.3" stroke-linecap="round" opacity=".5" fill="none"/><path d="M40.5 44 L43 34" stroke="#31562e" stroke-width="8.4" stroke-linecap="round" fill="none"/><circle cx="43" cy="34" r="3.5" fill="#FAD9B8"/><path d="M43 34 L35 21" stroke="#FAD9B8" stroke-width="6.6" stroke-linecap="round" fill="none"/><path d="M44.36265330672727 33.16144411893706 L36.36265330672727 20.161444118937066" stroke="#fbdfc3" stroke-width="1.4" stroke-linecap="round" opacity=".65" fill="none"/><path d="M41.552180861602274 34.89096562362937 L33.552180861602274 21.89096562362937" stroke="#cdb297" stroke-width="1.3" stroke-linecap="round" opacity=".5" fill="none"/><circle cx="13" cy="61" r="4" fill="#FAD9B8"/><rect x="16" y="62" width="24" height="4" rx="2" fill="#293040"/><path d="M17.5 66 L14.5 45 A13.5 13.5 0 0 1 41.5 45 L38.5 66 Z" fill="#3D6B3A"/><path d="M28 31.5 A13.5 13.5 0 0 1 41.5 45 L38.5 66 L28 66 Z" fill="#31562e"/><path d="M21 33 Q28 39 35 33 Q28 36 21 33 Z" fill="#284726"/><rect x="23.5" y="26" width="9" height="7" rx="3" fill="#FAD9B8"/><path d="M23.5 27.5 Q28 33 32.5 27.5 L32.5 26 L23.5 26 Z" fill="#cdb297"/><g transform="translate(35 21) rotate(20)"><rect x="-3" y="-5.2" width="6" height="10.4" rx="1.5" fill="#20242E"/><rect x="-2.2" y="-4.1" width="4.4" height="7" rx="0.8" fill="#5B7CFA"/></g><circle cx="35" cy="21" r="4" fill="#FAD9B8"/><circle cx="16.72" cy="17.72" r="2.64" fill="#FAD9B8"/><circle cx="39.28" cy="17.72" r="2.64" fill="#FAD9B8"/><circle cx="28" cy="17" r="12" fill="#FAD9B8"/><circle cx="28" cy="16.52" r="12.24" fill="#C98A3E"/><path d="M19.36 11 A10.8 10.8 0 0 1 27.4 6.199999999999999" stroke="#d5a468" stroke-width="1.56" stroke-linecap="round" fill="none"/></svg>