<svg xmlns="http://www.w3.org/2000/svg" viewBox="0 0 56 84" width="56" height="84"><path d="M35 62 L39.4 64.8" stroke="#313a4d" stroke-width="9.5" stroke-linecap="round" fill="none"/><path d="M39.4 64.8 L37 69" stroke="#313a4d" stroke-width="8.5" stroke-linecap="round" fill="none"/><rect x="31.5" y="68" width="11" height="5" rx="2.5" fill="#2A303F"/><rect x="31.5" y="70.6" width="11" height="2.4" rx="1.2" fill="#1d222c"/><path d="M21 62 L21 69" stroke="#3F4A63" stroke-width="9.5" stroke-linecap="round" fill="none"/><path d="M21 69 L21 75" stroke="#3F4A63" stroke-width="8.5" stroke-linecap="round" fill="none"/><rect x="15.5" y="74" width="11" height="5" rx="2.5" fill="#2A303F"/><rect x="15.5" y="76.6" width="11" height="2.4" rx="1.2" fill="#1d222c"/><g transform="translate(0 -2)"><rect x="16" y="62" width="24" height="4" rx="2" fill="#293040"/><path d="M17.5 66 L14.5 45 A13.5 13.5 0 0 1 41.5 45 L38.5 66 Z" fill="#1D4ED8"/><path d="M28 31.5 A13.5 13.5 0 0 1 41.5 45 L38.5 66 L28 66 Z" fill="#173ead"/><path d="M22 33 L28 42 L34 33 Q28 37 22 33 Z" fill="#13338f"/><path d="M23 35 L26.5 47" stroke="#2A2F3D" stroke-width="1.5" stroke-linecap="round"/><path d="M33 35 L29.5 47" stroke="#2A2F3D" stroke-width="1.5" stroke-linecap="round"/><rect x="24" y="46" width="8" height="6" rx="1.6" fill="#F7F4EC"/><rect x="25.4" y="48" width="5.2" height="1.3" rx="0.65" fill="#1D4ED8"/><path d="M15.5 44 L14 54" stroke="#1D4ED8" stroke-width="8.4" stroke-linecap="round" fill="none"/><circle cx="14" cy="54" r="3.5" fill="#E9B98C"/><path d="M14 54 L14 63" stroke="#E9B98C" stroke-width="6.6" stroke-linecap="round" fill="none"/><path d="M15.6 54 L15.6 63" stroke="#edc49e" stroke-width="1.4" stroke-linecap="round" opacity=".65" fill="none"/><path d="M12.3 54 L12.3 63" stroke="#bf9873" stroke-width="1.3" stroke-linecap="round" opacity=".5" fill="none"/><path d="M40.5 44 L41 54" stroke="#173ead" stroke-width="8.4" stroke-linecap="round" fill="none"/><circle cx="41" cy="54" r="3.5" fill="#E9B98C"/><path d="M41 54 L41 63" stroke="#E9B98C" stroke-width="6.6" stroke-linecap="round" fill="none"/><path d="M39.4 54 L39.4 63" stroke="#edc49e" stroke-width="1.4" stroke-linecap="round" opacity=".65" fill="none"/><path d="M42.7 54 L42.7 63" stroke="#bf9873" stroke-width="1.3" stroke-linecap="round" opacity=".5" fill="none"/><circle cx="14" cy="63" r="4" fill="#E9B98C"/><circle cx="41" cy="63" r="4" fill="#E9B98C"/><rect x="23.5" y="26" width="9" height="7" rx="3" fill="#E9B98C"/><path d="M23.5 27.5 Q28 33 32.5 27.5 L32.5 26 L23.5 26 Z" fill="#bf9873"/><circle cx="16.72" cy="17.72" r="2.64" fill="#E9B98C"/><circle cx="39.28" cy="17.72" r="2.64" fill="#E9B98C"/><circle cx="28" cy="17" r="12" fill="#E9B98C"/><path d="M16 12.92 A12 12 0 0 1 40 12.92 Z" fill="#5B3A1E"/><path d="M17.2 14.120000000000001 Q20.08 2.3599999999999994 29.2 2.120000000000001 Q34 3.080000000000002 38.32 11.719999999999999 Q28 6.92 17.2 14.120000000000001 Z" fill="#5B3A1E"/><path d="M21.759999999999998 10.52 Q23.68 4.52 28.48 3.5599999999999987" stroke="#7f6550" stroke-width="1.56" stroke-linecap="round" fill="none"/><path d="M21.88 12.92 Q23.68 11.719999999999999 25.48 12.92" stroke="#5B3A1E" stroke-width="0.8999999999999999" stroke-linecap="round" fill="none"/><path d="M30.52 12.92 Q32.32 11.719999999999999 34.12 12.92" stroke="#5B3A1E" stroke-width="0.8999999999999999" stroke-linecap="round" fill="none"/><ellipse cx="21.759999999999998" cy="20.6" rx="1.6800000000000002" ry="1.08" fill="#FF6A5B" opacity=".3"/><ellipse cx="34.24" cy="20.6" rx="1.6800000000000002" ry="1.08" fill="#FF6A5B" opacity=".3"/><circle cx="23.68" cy="16.52" r="1.44" fill="#2A2530"/><circle cx="23.1904" cy="16.0304" r="0.48960000000000004" fill="#fff"/><circle cx="32.32" cy="16.52" r="1.44" fill="#2A2530"/><circle cx="31.8304" cy="16.0304" r="0.48960000000000004" fill="#fff"/><path d="M28 17.96 Q28.84 19.4 27.76 19.52" stroke="#b6906d" stroke-width="0.6000000000000001" stroke-linecap="round" fill="none"/><path d="M25.6 21.32 Q28 23 30.4 21.32" stroke="#876b51" stroke-width="1.5" stroke-linecap="round" fill="none"/><rect x="20.919999999999998" y="14.48" width="5.5200000000000005" height="4.08" rx="1.7136" fill="#C8DCF2" opacity=".25"/><rect x="29.56" y="14.48" width="5.5200000000000005" height="4.08" rx="1.7136" fill="#C8DCF2" opacity=".25"/><rect x="20.919999999999998" y="14.48" width="5.5200000000000005" height="4.08" rx="1.7136" fill="none" stroke="#2A2530" stroke-width="0.66"/><rect x="29.56" y="14.48" width="5.5200000000000005" height="4.08" rx="1.7136" fill="none" stroke="#2A2530" stroke-width="0.66"/><path d="M26.44 16.52 L29.56 16.52" stroke="#2A2530" stroke-width="0.66"/></g></svg>