<svg xmlns="http://www.w3.org/2000/svg" viewBox="0 0 56 84" width="56" height="84"><path d="M35 62 L36.55 67" stroke="#313a4d" stroke-width="9.5" stroke-linecap="round" fill="none"/><path d="M36.55 67 L34 70" stroke="#313a4d" stroke-width="8.5" stroke-linecap="round" fill="none"/><rect x="30.25" y="69" width="7.5" height="4" rx="2.5" fill="#2A303F"/><rect x="30.25" y="70.6" width="7.5" height="2.4" rx="1.2" fill="#1d222c"/><path d="M21 62 L21.675 70.6" stroke="#3F4A63" stroke-width="9.5" stroke-linecap="round" fill="none"/><path d="M21.675 70.6 L22.5 79" stroke="#3F4A63" stroke-width="8.5" stroke-linecap="round" fill="none"/><rect x="15.6" y="78" width="13.8" height="5.8" rx="2.5" fill="#2A303F"/><rect x="15.6" y="81.39999999999999" width="13.8" height="2.4" rx="1.2" fill="#1d222c"/><rect x="16" y="62" width="24" height="4" rx="2" fill="#293040"/><path d="M17.5 66 L14.5 45 A13.5 13.5 0 0 1 41.5 45 L38.5 66 Z" fill="#1E9E8A"/><path d="M28 31.5 A13.5 13.5 0 0 1 41.5 45 L38.5 66 L28 66 Z" fill="#187e6e"/><path d="M22 33 L28 42 L34 33 Q28 37 22 33 Z" fill="#14685b"/><path d="M23 35 L26.5 47" stroke="#2A2F3D" stroke-width="1.5" stroke-linecap="round"/><path d="M33 35 L29.5 47" stroke="#2A2F3D" stroke-width="1.5" stroke-linecap="round"/><rect x="24" y="46" width="8" height="6" rx="1.6" fill="#F7F4EC"/><rect x="25.4" y="48" width="5.2" height="1.3" rx="0.65" fill="#1E9E8A"/><path d="M15.5 44 L13 52" stroke="#1E9E8A" stroke-width="8.4" stroke-linecap="round" fill="none"/><circle cx="13" cy="52" r="3.5" fill="#C08050"/><path d="M13 52 L13 61" stroke="#C08050" stroke-width="6.6" stroke-linecap="round" fill="none"/><path d="M14.6 52 L14.6 61" stroke="#ca946c" stroke-width="1.4" stroke-linecap="round" opacity=".65" fill="none"/><path d="M11.3 52 L11.3 61" stroke="#9d6942" stroke-width="1.3" stroke-linecap="round" opacity=".5" fill="none"/><path d="M40.5 44 L47 32" stroke="#187e6e" stroke-width="8.4" stroke-linecap="round" fill="none"/><circle cx="47" cy="32" r="3.5" fill="#C08050"/><path d="M47 32 L39 19" stroke="#C08050" stroke-width="6.6" stroke-linecap="round" fill="none"/><path d="M48.36265330672727 31.161444118937066 L40.36265330672727 18.161444118937066" stroke="#ca946c" stroke-width="1.4" stroke-linecap="round" opacity=".65" fill="none"/><path d="M45.552180861602274 32.89096562362937 L37.552180861602274 19.89096562362937" stroke="#9d6942" stroke-width="1.3" stroke-linecap="round" opacity=".5" fill="none"/><circle cx="13" cy="61" r="4" fill="#C08050"/><rect x="23.5" y="26" width="9" height="7" rx="3" fill="#C08050"/><path d="M23.5 27.5 Q28 33 32.5 27.5 L32.5 26 L23.5 26 Z" fill="#9d6942"/><path d="M16 13.4 L16 24.799999999999997 Q17.8 28.039999999999996 19.6 24.799999999999997 L19.6 13.4 Z" fill="#1F1A17"/><path d="M36.4 13.4 L36.4 24.799999999999997 Q38.2 28.039999999999996 40 24.799999999999997 L40 13.4 Z" fill="#1F1A17"/><path d="M16 13.4 A12 12 0 0 1 40 13.4 Z" fill="#1F1A17"/><circle cx="20.32" cy="8.600000000000001" r="2.2800000000000002" fill="#504c4a"/><circle cx="25.36" cy="6.199999999999999" r="2.4000000000000004" fill="#504c4a"/><circle cx="30.64" cy="6.199999999999999" r="2.4000000000000004" fill="#1F1A17"/><circle cx="35.68" cy="8.600000000000001" r="2.2800000000000002" fill="#1F1A17"/><circle cx="17.68" cy="13.4" r="2.04" fill="#1F1A17"/><circle cx="38.32" cy="13.4" r="2.04" fill="#1F1A17"/><circle cx="16.72" cy="17.72" r="2.64" fill="#C08050"/><circle cx="39.28" cy="17.72" r="2.64" fill="#C08050"/><circle cx="28" cy="17" r="12" fill="#C08050"/><path d="M21.88 12.92 Q23.68 11.719999999999999 25.48 12.92" stroke="#1F1A17" stroke-width="0.8999999999999999" stroke-linecap="round" fill="none"/><path d="M30.52 12.92 Q32.32 11.719999999999999 34.12 12.92" stroke="#1F1A17" stroke-width="0.8999999999999999" stroke-linecap="round" fill="none"/><ellipse cx="21.759999999999998" cy="20.6" rx="1.6800000000000002" ry="1.08" fill="#FF6A5B" opacity=".3"/><ellipse cx="34.24" cy="20.6" rx="1.6800000000000002" ry="1.08" fill="#FF6A5B" opacity=".3"/><circle cx="23.68" cy="16.52" r="1.44" fill="#2A2530"/><circle cx="23.1904" cy="16.0304" r="0.48960000000000004" fill="#fff"/><circle cx="32.32" cy="16.52" r="1.44" fill="#2A2530"/><circle cx="31.8304" cy="16.0304" r="0.48960000000000004" fill="#fff"/><path d="M28 17.96 Q28.84 19.4 27.76 19.52" stroke="#96643e" stroke-width="0.6000000000000001" stroke-linecap="round" fill="none"/><path d="M25.6 21.32 Q28 23 30.4 21.32" stroke="#6f4a2e" stroke-width="1.5" stroke-linecap="round" fill="none"/><g transform="translate(39 19) rotate(-8)"><rect x="-3" y="-5.2" width="6" height="10.4" rx="1.5" fill="#20242E"/><rect x="-2.2" y="-4.1" width="4.4" height="7" rx="0.8" fill="#5B7CFA"/></g><circle cx="39" cy="19" r="4" fill="#C08050"/></svg>