<svg xmlns="http://www.w3.org/2000/svg" viewBox="0 0 84 90" width="84" height="90"><rect x="18" y="66" width="5" height="18" rx="2" fill="#7C8394"></rect><rect x="61" y="66" width="5" height="18" rx="2" fill="#7C8394"></rect><circle cx="20" cy="85" r="4" fill="#232733"></circle><circle cx="63" cy="85" r="4" fill="#232733"></circle><rect x="24" y="74" width="36" height="5" rx="2" fill="#7C8394"></rect><rect x="8" y="64" width="68" height="6" rx="3" fill="#C8CCD6"></rect><rect x="8" y="8" width="68" height="58" rx="4" fill="#FFFFFF"></rect><rect x="11" y="11" width="62" height="12.8" rx="3" fill="#fff" opacity=".28"></rect><rect x="13" y="13" width="58" height="48" rx="3" fill="#F2F0EA"></rect><rect x="19" y="22" width="30" height="4" rx="2" fill="#2E5BFF" opacity="0.8"></rect><rect x="19" y="32" width="42" height="4" rx="2" fill="#3A4356" opacity="0.45"></rect><rect x="19" y="42" width="24" height="4" rx="2" fill="#3A4356" opacity="0.45"></rect><circle cx="57" cy="46" r="7" fill="#FFB53D" opacity=".85"></circle><rect x="50" y="61" width="14" height="4" rx="2" fill="#FF6A5B"></rect></svg>