<svg xmlns="http://www.w3.org/2000/svg" viewBox="0 0 56 66" width="56" height="66"><rect x="16" y="62" width="24" height="4" rx="2" fill="#293040"/><path d="M17.5 66 L14.5 45 A13.5 13.5 0 0 1 41.5 45 L38.5 66 Z" fill="#E86A33"/><path d="M28 31.5 A13.5 13.5 0 0 1 41.5 45 L38.5 66 L28 66 Z" fill="#ba5529"/><path d="M22 33 L28 42 L34 33 Q28 37 22 33 Z" fill="#994622"/><path d="M23 35 L26.5 47" stroke="#2A2F3D" stroke-width="1.5" stroke-linecap="round"/><path d="M33 35 L29.5 47" stroke="#2A2F3D" stroke-width="1.5" stroke-linecap="round"/><rect x="24" y="46" width="8" height="6" rx="1.6" fill="#F7F4EC"/><rect x="25.4" y="48" width="5.2" height="1.3" rx="0.65" fill="#E86A33"/><path d="M15.5 44 L14 54" stroke="#E86A33" stroke-width="8.4" stroke-linecap="round" fill="none"/><circle cx="14" cy="54" r="3.5" fill="#B87A4A"/><path d="M14 54 L14 63" stroke="#B87A4A" stroke-width="6.6" stroke-linecap="round" fill="none"/><path d="M15.6 54 L15.6 63" stroke="#c38f67" stroke-width="1.4" stroke-linecap="round" opacity=".65" fill="none"/><path d="M12.3 54 L12.3 63" stroke="#97643d" stroke-width="1.3" stroke-linecap="round" opacity=".5" fill="none"/><path d="M40.5 44 L41 54" stroke="#ba5529" stroke-width="8.4" stroke-linecap="round" fill="none"/><circle cx="41" cy="54" r="3.5" fill="#B87A4A"/><path d="M41 54 L41 63" stroke="#B87A4A" stroke-width="6.6" stroke-linecap="round" fill="none"/><path d="M39.4 54 L39.4 63" stroke="#c38f67" stroke-width="1.4" stroke-linecap="round" opacity=".65" fill="none"/><path d="M42.7 54 L42.7 63" stroke="#97643d" stroke-width="1.3" stroke-linecap="round" opacity=".5" fill="none"/><circle cx="14" cy="63" r="4" fill="#B87A4A"/><circle cx="41" cy="63" r="4" fill="#B87A4A"/><rect x="23.5" y="26" width="9" height="7" rx="3" fill="#B87A4A"/><path d="M23.5 27.5 Q28 33 32.5 27.5 L32.5 26 L23.5 26 Z" fill="#97643d"/><circle cx="16.72" cy="17.72" r="2.64" fill="#B87A4A"/><circle cx="39.28" cy="17.72" r="2.64" fill="#B87A4A"/><circle cx="28" cy="17" r="12" fill="#B87A4A"/><path d="M16 12.44 A12 12 0 0 1 40 12.44 Z" fill="#241A12"/><path d="M16.240000000000002 11.719999999999999 Q26.8 5 38.8 9.559999999999999 Q29.2 8.84 16.240000000000002 11.719999999999999 Z" fill="#241A12"/><path d="M16 12.44 L16 17.48 Q17.2 19.64 18.4 17.48 L18.4 12.44 Z" fill="#241A12"/><path d="M37.6 12.44 L37.6 17.48 Q38.8 19.64 40 17.48 L40 12.44 Z" fill="#241A12"/><path d="M20.08 9.799999999999999 A9.120000000000001 9.120000000000001 0 0 1 27.52 3.799999999999999" stroke="#544c46" stroke-width="1.6800000000000002" stroke-linecap="round" fill="none"/><path d="M21.88 12.92 Q23.68 11.719999999999999 25.48 12.92" stroke="#241A12" stroke-width="0.8999999999999999" stroke-linecap="round" fill="none"/><path d="M30.52 12.92 Q32.32 11.719999999999999 34.12 12.92" stroke="#241A12" stroke-width="0.8999999999999999" stroke-linecap="round" fill="none"/><ellipse cx="21.759999999999998" cy="20.6" rx="1.6800000000000002" ry="1.08" fill="#FF6A5B" opacity=".3"/><ellipse cx="34.24" cy="20.6" rx="1.6800000000000002" ry="1.08" fill="#FF6A5B" opacity=".3"/><circle cx="23.68" cy="16.52" r="1.44" fill="#2A2530"/><circle cx="23.1904" cy="16.0304" r="0.48960000000000004" fill="#fff"/><circle cx="32.32" cy="16.52" r="1.44" fill="#2A2530"/><circle cx="31.8304" cy="16.0304" r="0.48960000000000004" fill="#fff"/><path d="M28 17.96 Q28.84 19.4 27.76 19.52" stroke="#905f3a" stroke-width="0.6000000000000001" stroke-linecap="round" fill="none"/><path d="M25.6 21.32 Q28 23 30.4 21.32" stroke="#6b472b" stroke-width="1.5" stroke-linecap="round" fill="none"/></svg>