<svg xmlns="http://www.w3.org/2000/svg" viewBox="0 0 56 84" width="56" height="84"><rect x="16" y="64" width="10" height="15" rx="4" fill="#3F4A63"/><rect x="30" y="64" width="10" height="15" rx="4" fill="#313a4d"/><rect x="15" y="76" width="11" height="6" rx="3" fill="#2A303F"/><rect x="30" y="76" width="11" height="6" rx="3" fill="#2A303F"/><rect x="15" y="80" width="11" height="2.6" rx="1.3" fill="#1d222c"/><rect x="30" y="80" width="11" height="2.6" rx="1.3" fill="#1d222c"/><rect x="16" y="62" width="24" height="4" rx="2" fill="#293040"/><path d="M17.5 66 L14.5 45 A13.5 13.5 0 0 1 41.5 45 L38.5 66 Z" fill="#2B4C7E"/><path d="M28 31.5 A13.5 13.5 0 0 1 41.5 45 L38.5 66 L28 66 Z" fill="#223d65"/><path d="M21 33 Q28 39 35 33 Q28 36 21 33 Z" fill="#1c3253"/><path d="M15.5 44 L14 54" stroke="#2B4C7E" stroke-width="8.4" stroke-linecap="round" fill="none"/><circle cx="14" cy="54" r="3.5" fill="#E5B183"/><path d="M14 54 L14 63" stroke="#E5B183" stroke-width="6.6" stroke-linecap="round" fill="none"/><path d="M15.6 54 L15.6 63" stroke="#e9bd97" stroke-width="1.4" stroke-linecap="round" opacity=".65" fill="none"/><path d="M12.3 54 L12.3 63" stroke="#bc916b" stroke-width="1.3" stroke-linecap="round" opacity=".5" fill="none"/><path d="M40.5 44 L43 34" stroke="#223d65" stroke-width="8.4" stroke-linecap="round" fill="none"/><circle cx="43" cy="34" r="3.5" fill="#E5B183"/><path d="M43 34 L35 21" stroke="#E5B183" stroke-width="6.6" stroke-linecap="round" fill="none"/><path d="M44.36265330672727 33.16144411893706 L36.36265330672727 20.161444118937066" stroke="#e9bd97" stroke-width="1.4" stroke-linecap="round" opacity=".65" fill="none"/><path d="M41.552180861602274 34.89096562362937 L33.552180861602274 21.89096562362937" stroke="#bc916b" stroke-width="1.3" stroke-linecap="round" opacity=".5" fill="none"/><circle cx="14" cy="63" r="4" fill="#E5B183"/><rect x="23.5" y="26" width="9" height="7" rx="3" fill="#E5B183"/><path d="M23.5 27.5 Q28 33 32.5 27.5 L32.5 26 L23.5 26 Z" fill="#bc916b"/><g transform="translate(35 21) rotate(20)"><rect x="-3" y="-5.2" width="6" height="10.4" rx="1.5" fill="#20242E"/><rect x="-2.2" y="-4.1" width="4.4" height="7" rx="0.8" fill="#5B7CFA"/></g><circle cx="35" cy="21" r="4" fill="#E5B183"/><circle cx="16.72" cy="17.72" r="2.64" fill="#E5B183"/><circle cx="39.28" cy="17.72" r="2.64" fill="#E5B183"/><circle cx="28" cy="17" r="12" fill="#E5B183"/><circle cx="28" cy="16.04" r="12.36" fill="#8A6A3A"/><path d="M30.4 4.915999999999999 Q38.2 13.639999999999999 34 23.456" stroke="#a48b65" stroke-width="1.6800000000000002" stroke-linecap="round" fill="none"/></svg>